<svg preserveAspectRatio="xMidYMid meet" width="750" height="620" xmlns="http://www.w3.org/2000/svg">
 <g id="Layer_1">
  <title>Layer 1</title>
  <rect stroke-width="15" rx="15" id="svg_2" height="125" width="219.00001" y="23" x="20" stroke="#4D2425" fill="#894F3F"/>
  <rect stroke-width="15" rx="15" id="svg_3" height="125" width="219.00001" y="23" x="264" stroke="#4D2425" fill="#894F3F"/>
  <rect stroke-width="15" rx="15" id="svg_4" height="125" width="219.00001" y="23" x="20" stroke="#4D2425" fill="#894F3F"/>
  <rect stroke-width="15" rx="15" id="svg_5" height="125" width="219.00001" y="23" x="264" stroke="#4D2425" fill="#894F3F"/>
  <rect stroke-width="15" rx="15" id="svg_6" height="125" width="219.00001" y="173" x="143" stroke="#4D2425" fill="#894F3F"/>
  <rect stroke-width="15" rx="15" id="svg_7" height="125" width="219.00001" y="174" x="385" stroke="#4D2425" fill="#894F3F"/>
  <rect stroke-width="15" rx="15" id="svg_8" height="125" width="219.00001" y="23" x="20" stroke="#4D2425" fill="#894F3F"/>
  <rect stroke-width="15" rx="15" id="svg_9" height="125" width="219.00001" y="23" x="264" stroke="#4D2425" fill="#894F3F"/>
  <rect stroke-width="15" rx="15" id="svg_10" height="125" width="219.00001" y="21" x="512" stroke="#4D2425" fill="#894F3F"/>
  <rect stroke-width="15" rx="15" id="svg_11" height="125" width="219.00001" y="324" x="20" stroke="#4D2425" fill="#894F3F"/>
  <rect stroke-width="15" rx="15" id="svg_12" height="125" width="219.00001" y="324" x="264" stroke="#4D2425" fill="#894F3F"/>
  <rect stroke-width="15" rx="15" id="svg_13" height="125" width="219.00001" y="324" x="20" stroke="#4D2425" fill="#894F3F"/>
  <rect stroke-width="15" rx="15" id="svg_14" height="125" width="219.00001" y="324" x="264" stroke="#4D2425" fill="#894F3F"/>
  <rect stroke-width="15" rx="15" id="svg_15" height="125" width="219.00001" y="324" x="20" stroke="#4D2425" fill="#894F3F"/>
  <rect stroke-width="15" rx="15" id="svg_16" height="125" width="219.00001" y="324" x="264" stroke="#4D2425" fill="#894F3F"/>
  <rect stroke-width="15" rx="15" id="svg_17" height="125" width="219.00001" y="324" x="510" stroke="#4D2425" fill="#894F3F"/>
  <rect stroke-width="15" rx="15" id="svg_18" height="125" width="219.00001" y="474" x="145" stroke="#4D2425" fill="#894F3F"/>
  <rect stroke-width="15" rx="15" id="svg_19" height="125" width="219.00001" y="476" x="387" stroke="#4D2425" fill="#894F3F"/>
  <rect stroke-width="15" rx="15" id="svg_20" height="125" width="98" y="172" x="19" stroke="#4D2425" fill="#894F3F"/>
  <rect stroke-width="15" rx="15" id="svg_21" height="125" width="98" y="472" x="21" stroke="#4D2425" fill="#894F3F"/>
  <rect stroke-width="15" rx="15" id="svg_22" height="125" width="98" y="173" x="632" stroke="#4D2425" fill="#894F3F"/>
  <rect stroke-width="15" rx="15" id="svg_23" height="125" width="98" y="476" x="631" stroke="#4D2425" fill="#894F3F"/>
 </g>

</svg>