<?xml version="1.0" encoding="UTF-8" standalone="no"?>
<!-- Created with Inkscape (http://www.inkscape.org/) -->
<svg xmlns:inkscape="http://www.inkscape.org/namespaces/inkscape" xmlns:rdf="http://www.w3.org/1999/02/22-rdf-syntax-ns#" xmlns="http://www.w3.org/2000/svg" xmlns:sodipodi="http://sodipodi.sourceforge.net/DTD/sodipodi-0.dtd" xmlns:ns1="http://sozi.baierouge.fr" xmlns:cc="http://creativecommons.org/ns#" xmlns:xlink="http://www.w3.org/1999/xlink" xmlns:dc="http://purl.org/dc/elements/1.1/" id="svg3111" sodipodi:docname="New document 4" viewBox="0 0 354.33 885.83" version="1.1" inkscape:version="0.48.2 r9819">
  <defs id="defs3">
    <linearGradient id="linearGradient3270" y2="274.25" gradientUnits="userSpaceOnUse" x2="1290" gradientTransform="translate(-522.24 -9.2108)" y1="314.78" x1="1288.4" inkscape:collect="always">
      <stop id="stop3081" style="stop-color:#999999" offset="0"/>
      <stop id="stop3083" style="stop-color:#999999;stop-opacity:0" offset="1"/>
    </linearGradient>
  </defs>
  <sodipodi:namedview id="base" bordercolor="#666666" inkscape:pageshadow="2" inkscape:window-y="-8" pagecolor="#ffffff" inkscape:window-height="838" inkscape:window-maximized="1" inkscape:zoom="0.35" inkscape:window-x="-8" showgrid="false" borderopacity="1.0" inkscape:current-layer="layer1" inkscape:cx="452.39507" inkscape:cy="556.06668" units="mm" inkscape:window-width="1600" inkscape:pageopacity="0.0" inkscape:document-units="mm"/>
  <g id="layer1" inkscape:label="Layer 1" inkscape:groupmode="layer" transform="translate(0 -166.54)">
    <g id="g3237" transform="matrix(2.507 0 0 2.507 -1748.3 -408.39)">
      <rect id="rect3065" ry="2.8426" style="stroke:#2e3436;stroke-linecap:square;stroke-width:.83782;fill:#333333" transform="rotate(-17.908)" height="5.6852" width="26.631" y="534.91" x="580.04"/>
      <rect id="rect3057" style="stroke:#2e3436;stroke-linecap:square;fill:#2e3436" ry="10.607" height="55.306" width="19.193" y="260.11" x="759.64"/>
      <path id="path3075" d="m741.71 334.36 2.2728 3.5355 9.3439 2.5254 6.0609 6.0609 2.778 3.0305 3.5355 2.2728 7.5761-0.50508 2.778-1.7678 2.7779-4.0406 5.5558-4.7982 9.849-1.7678-0.2525-4.2931-1.7678-25.506-5.0508-16.92-17.425-11.869h-4.0406l-17.678 13.385-5.0507 16.415z" style="stroke:#000000;stroke-width:1px;fill:#1a1a1a" inkscape:connector-curvature="0"/>
      <path id="path3077" d="m744.61 315.42s8.7125-4.9245 20.708-5.0508c11.996-0.12626 26.769 4.9245 26.769 4.9245l-1.7677-14.395-6.8186-11.996-15.405-8.5863-17.804 11.996-6.1872 9.849z" style="fill:url(#linearGradient3270)" inkscape:connector-curvature="0"/>
      <path id="path3033" sodipodi:nodetypes="csccssccccc" inkscape:connector-curvature="0" style="stroke:#000000;stroke-width:1px;fill:#aa0000" d="m734.68 307.21s1.2627-13.385 5.5559-17.678c4.2931-4.2932 28.158-15.657 28.158-15.657l0.6313 7.1973s-17.804 9.7227-19.824 15.405c-2.0203 5.6821-3.7881 11.996-4.1669 15.91-0.3788 3.9143-1.2627 22.728-1.2627 22.728l-7.5761-2.9042 0.6313-15.784-1.894-7.4499z"/>
      <path id="path3035" style="stroke:#000000;stroke-width:1px;fill:#0e0e0e" inkscape:connector-curvature="0" d="m743.97 310.94-5.0507-0.25254s-9.4702-1.1996-13.953 0.69448c-4.4825 1.894-11.49 10.102-11.49 10.102l0.6314 2.336s9.0914 2.5885 13.826 0.69448c4.7351-1.894 8.902-7.0711 8.902-7.0711l0.2526-2.0834 5.8715 0.18941s0.8207-0.63135 1.1995-2.336-0.1894-2.2728-0.1894-2.2728z"/>
      <path id="path3037" sodipodi:nodetypes="cscccscscsc" inkscape:connector-curvature="0" style="stroke:#000000;stroke-width:1px;fill:#710306" d="m742.04 338.1s-4.2857 11.964-4.8214 18.393c-0.5357 6.4286-0.3571 27.321-0.3571 27.321l8.2142 12.321 2.8572-13.214s12.678 26.071 20.536 26.429c3.408 0.15491 0.016-57.679 0.016-57.679s-7.5164-0.71429-8.2307-3.5714c-0.7143-2.8572-0.8928-2.8572-0.8928-2.8572s-5.7143-5.5357-8.9286-6.0714c-3.2143-0.53572-8.3929-1.0714-8.3929-1.0714z"/>
      <path id="path3039" sodipodi:nodetypes="cscscccsccc" inkscape:connector-curvature="0" style="stroke:#000000;stroke-width:1px;fill:#1a181b" d="m745.43 395.24s4.1071 3.2143 4.1071 8.5714c0 5.3572 2.3215 13.036 2.3215 13.036s-4.4643 6.0714-3.9286 13.036c0.5357 6.9643 8.5714 16.964 8.5714 16.964l11.607 1.9643 0.7142-40.357s-8.75-3.9286-10.357-7.8571c-1.6071-3.9286-10.357-17.857-10.357-17.857l-2.1429 8.3929z"/>
      <rect id="rect3059" ry="7.5" style="stroke:#2e3436;stroke-linecap:square;fill:#888a85" transform="rotate(7.011)" height="40.179" width="15" y="371.6" x="801.26"/>
      <path id="path3041" style="stroke:#000000;stroke-width:1px;fill:#700500" inkscape:connector-curvature="0" d="m767.93 449.17v54.643s-3.5714-3.9286-5.1786-6.25c-1.6071-2.3214-5.3571-4.6428-6.0714-9.2857s-9.8214-15.179-12.5-21.25c-2.6786-6.0714-4.4643-14.107-2.5-23.393 1.9643-9.2857 6.7857-9.2857 6.7857-9.2857l6.25 10 4.4643 3.9286z"/>
      <rect id="rect3067" style="stroke:#2e3436;stroke-linecap:square;stroke-width:.83782;fill:#333333" transform="matrix(-.95155 -.30749 -.30749 .95155 0 0)" ry="2.8426" height="5.6852" width="26.631" y="62.161" x="-882.12"/>
      <path id="path3043" d="m802.46 307.21s-1.2627-13.385-5.5559-17.678c-4.2931-4.2932-28.284-15.657-28.284-15.657l0.3788 7.5762s16.92 9.3439 18.94 15.026c2.0203 5.6821 3.7881 11.996 4.1669 15.91 0.3788 3.9143 1.2627 22.728 1.2627 22.728l7.5761-2.9042-0.6313-15.784 1.894-7.4499z" sodipodi:nodetypes="csccssccccc" style="stroke:#000000;stroke-width:1px;fill:#aa0000" inkscape:connector-curvature="0"/>
      <path id="path3045" d="m793.18 310.94 5.0507-0.25254s9.4702-1.1996 13.953 0.69448c4.4825 1.894 11.49 10.102 11.49 10.102l-0.6314 2.336s-9.0914 2.5885-13.826 0.69448c-4.7351-1.894-8.902-7.0711-8.902-7.0711l-0.2526-2.0834-5.8715 0.18941s-0.8207-0.63135-1.1995-2.336 0.1894-2.2728 0.1894-2.2728z" style="stroke:#000000;stroke-width:1px;fill:#0e0e0e" inkscape:connector-curvature="0"/>
      <path id="path3047" d="m795.1 338.1s4.2857 11.964 4.8214 18.393c0.5357 6.4286 0.3571 27.321 0.3571 27.321l-8.2142 12.321-2.8572-13.214s-9.4643 26.786-19.464 27.143c-3.4094 0.12176-1.5928-58.519-1.5928-58.519s8.0214-0.58802 8.7357-3.4452 0.8928-2.8572 0.8928-2.8572 5.7143-5.5357 8.9286-6.0714c3.2143-0.53572 8.3929-1.0714 8.3929-1.0714z" sodipodi:nodetypes="cscccscscsc" style="stroke:#000000;stroke-width:1px;fill:#710306" inkscape:connector-curvature="0"/>
      <path id="path3049" d="m791.71 395.24s-4.1071 3.2143-4.1071 8.5714c0 5.3572-2.3215 13.036-2.3215 13.036s4.4643 6.0714 3.9286 13.036c-0.5357 6.9643-8.5714 16.964-8.5714 16.964l-11.607 1.9643 0.2679-40.268s7.7679-4.0179 9.375-7.9464c1.6071-3.9286 10.357-17.857 10.357-17.857l2.1429 8.3929z" sodipodi:nodetypes="cscscccsccc" style="stroke:#000000;stroke-width:1px;fill:#1a181b" inkscape:connector-curvature="0"/>
      <rect id="rect3093" style="stroke:#2e3436;stroke-linecap:square;fill:#888a85" transform="matrix(-.99252 .12206 .12206 .99252 0 0)" ry="7.5" height="40.179" width="15" y="559.21" x="-724.33"/>
      <path id="path3051" d="m767.6 449.17 0.3571 54.643s4.8214-3.9286 6.4286-6.25c1.6071-2.3214 5.3571-4.6428 6.0714-9.2857s9.8214-15.179 12.5-21.25c2.6786-6.0714 4.4643-14.107 2.5-23.393-1.9643-9.2857-6.7857-9.2857-6.7857-9.2857l-6.25 10-4.4643 3.9286z" sodipodi:nodetypes="cccssscccc" style="stroke:#000000;stroke-width:1px;fill:#700500" inkscape:connector-curvature="0"/>
      <path id="path3101" d="m789.01 439.35c0.1338 5.4692-2.3214 10.84-2.3214 15.893 0 9.0869-8.9286 16.982-8.9286 26.25 0 5.2368-6.25 6.8602-6.25 10.714 0 1.1294-1.0714 4.3437-1.0714 3.2143 0-1.8616 34.205-46.021 18.571-56.071z" style="fill:#d40000" inkscape:connector-curvature="0"/>
      <path id="path3099" style="fill:#aa0000" inkscape:connector-curvature="0" d="m750.37 365.87c0.5489 2.0548 1.7707 3.9022 2.4107 5.9822 1.0301 3.348 3.0845 6.4452 3.9285 9.8214 3.6998 14.799-6.6719-7.4878-9.1964-8.75-0.064-0.0323-5.0841 11.518-4.9107 11.518 1.0463 0-0.9144-5.6004-1.0714-6.0714-1.3074-3.922-0.5646-8.9942 0-12.946 0.3644-2.5509-1.1359-21.875 1.6964-21.875 5.7352 0 1.6594 20.265 7.1429 22.321z"/>
      <path id="path3097" d="m785.61 365.87c-0.5489 2.0548-1.7707 3.9022-2.4107 5.9822-1.0301 3.348-3.0845 6.4452-3.9285 9.8214-3.6998 14.799 6.6719-7.4878 9.1964-8.75 0.064-0.0323 5.0841 11.518 4.9107 11.518-1.0463 0 0.9144-5.6004 1.0714-6.0714 1.3074-3.922 0.5646-8.9942 0-12.946-0.3644-2.5509 1.1359-21.875-1.6964-21.875-5.7352 0-1.6594 20.265-7.1429 22.321z" style="fill:#ff2a2a" inkscape:connector-curvature="0"/>
      <rect id="rect3063" style="stroke:#2e3436;stroke-linecap:square;fill:#333333" ry="7.5" height="57.806" width="13.485" y="334.7" x="715.12"/>
      <path id="path3103" style="fill:#aa0000" inkscape:connector-curvature="0" d="m747.56 439.88c-0.1338 5.4692 2.3214 10.84 2.3214 15.893 0 9.0869 8.9286 16.982 8.9286 26.25 0 5.2368 6.25 6.8602 6.25 10.714 0 1.1294 1.0714 4.3437 1.0714 3.2143 0-1.8616-34.205-46.021-18.571-56.071z"/>
      <rect id="rect3107" style="stroke:#2e3436;stroke-linecap:square;stroke-width:1.0214;fill:#1a1a1a" transform="matrix(-.029133 -.99958 .99950 -.031709 0 0)" ry="15.561" height="54.772" width="32.468" y="728.29" x="-463.45"/>
      <path id="path3053" sodipodi:rx="18.435284" sodipodi:ry="24.496199" style="stroke:#2e3436;stroke-linecap:square;fill:#edd400" sodipodi:type="arc" d="m1311.2 370.09c0 13.529-8.2538 24.496-18.435 24.496-10.182 0-18.435-10.967-18.435-24.496s8.2537-24.496 18.435-24.496c10.182 0 18.435 10.967 18.435 24.496z" transform="translate(-523.76 16.548)" sodipodi:cy="370.08551" sodipodi:cx="1292.7427"/>
      <rect id="rect3069" ry="7.5" style="stroke:#2e3436;stroke-linecap:square;fill:#333333" transform="rotate(-47.246)" height="45.357" width="15.329" y="792.36" x="194.94"/>
      <rect id="rect3071" ry="7.5" style="stroke:#2e3436;stroke-linecap:square;fill:#333333" transform="scale(-1,1)" height="57.806" width="13.485" y="334.34" x="-820.13"/>
      <rect id="rect3073" style="stroke:#2e3436;stroke-linecap:square;fill:#333333" transform="matrix(-.67885 -.73428 -.73428 .67885 0 0)" ry="7.5" height="45.357" width="15.329" y="-335.19" x="-846.99"/>
      <path id="path3055" d="m755.35 378.93s4.4195-9.0914 13.763-8.8388c12.008 0.32454 14.647 7.8287 14.647 7.8287l1.2627 10.48s-3.5356-9.9753-14.268-9.4702c-10.733 0.50508-15.91 9.3439-15.91 9.3439z" sodipodi:nodetypes="csccscc" style="stroke:#000000;stroke-width:1px;fill:#2e3436" inkscape:connector-curvature="0"/>
      <path id="path3087" d="m743.6 329.31s14.774 4.7982 15.152 5.3033c0.3788 0.50507-0.1263 2.7779 2.1466 3.283 2.2728 0.50508 3.788-1.894 5.9346-1.894s4.672 2.5254 7.3236 2.1466c2.6517-0.37881 3.0305-3.0305 3.0305-3.0305l16.036-4.9245-0.6314-4.2932-15.405 5.8084s-2.5254-1.0102-5.3033-1.0102-4.4194 1.7678-4.4194 1.7678-2.1466-1.389-4.0406-1.894c-1.8941-0.50508-4.5457 1.2627-4.5457 1.2627l-14.647-6.3135z" style="stroke:#000000;stroke-width:1px;fill:#333333" inkscape:connector-curvature="0"/>
      <path id="path3089" sodipodi:rx="8.3968935" sodipodi:ry="5.4295697" style="stroke:#000000;stroke-linecap:square;fill:#333333" sodipodi:type="arc" d="m1288.3 328.16c0 2.9987-3.7594 5.4296-8.3969 5.4296s-8.3969-2.4309-8.3969-5.4296 3.7594-5.4296 8.3969-5.4296 8.3969 2.4309 8.3969 5.4296z" transform="matrix(.96467 .26345 -.26345 .96467 -390.2 -332.66)" sodipodi:cy="328.16418" sodipodi:cx="1279.9264"/>
      <path id="path3091" sodipodi:rx="8.3968935" sodipodi:ry="5.4295697" style="stroke:#000000;stroke-linecap:square;fill:#333333" sodipodi:type="arc" d="m1288.3 328.16c0 2.9987-3.7594 5.4296-8.3969 5.4296s-8.3969-2.4309-8.3969-5.4296 3.7594-5.4296 8.3969-5.4296 8.3969 2.4309 8.3969 5.4296z" transform="matrix(-.96467 .26345 .26345 .96467 1927.4 -332.66)" sodipodi:cy="328.16418" sodipodi:cx="1279.9264"/>
    </g>
  </g>
  <metadata>
    <rdf:RDF>
      <cc:Work>
        <dc:format>image/svg+xml</dc:format>
        <dc:type rdf:resource="http://purl.org/dc/dcmitype/StillImage"/>
        <cc:license rdf:resource="http://creativecommons.org/licenses/publicdomain/"/>
        <dc:publisher>
          <cc:Agent rdf:about="http://openclipart.org/">
            <dc:title>Openclipart</dc:title>
          </cc:Agent>
        </dc:publisher>
      </cc:Work>
      <cc:License rdf:about="http://creativecommons.org/licenses/publicdomain/">
        <cc:permits rdf:resource="http://creativecommons.org/ns#Reproduction"/>
        <cc:permits rdf:resource="http://creativecommons.org/ns#Distribution"/>
        <cc:permits rdf:resource="http://creativecommons.org/ns#DerivativeWorks"/>
      </cc:License>
    </rdf:RDF>
  </metadata>
</svg>
